<svg width="18" height="20" viewBox="0 0 18 20" fill="none" xmlns="http://www.w3.org/2000/svg">
<path d="M9.63281 0.366211C9.14453 -0.12207 8.35156 -0.12207 7.86328 0.366211L2.86328 5.36621C2.375 5.85449 2.375 6.64746 2.86328 7.13574C3.35156 7.62402 4.14453 7.62402 4.63281 7.13574L7.5 4.26855V12.499C7.5 13.1904 8.05859 13.749 8.75 13.749C9.44141 13.749 10 13.1904 10 12.499V4.26855L12.8672 7.13574C13.3555 7.62402 14.1484 7.62402 14.6367 7.13574C15.125 6.64746 15.125 5.85449 14.6367 5.36621L9.63672 0.366211H9.63281ZM2.5 13.749C2.5 13.0576 1.94141 12.499 1.25 12.499C0.558594 12.499 0 13.0576 0 13.749V16.249C0 18.3193 1.67969 19.999 3.75 19.999H13.75C15.8203 19.999 17.5 18.3193 17.5 16.249V13.749C17.5 13.0576 16.9414 12.499 16.25 12.499C15.5586 12.499 15 13.0576 15 13.749V16.249C15 16.9404 14.4414 17.499 13.75 17.499H3.75C3.05859 17.499 2.5 16.9404 2.5 16.249V13.749Z" fill="#F5F5F6"/>
</svg>
