<svg width="132" height="159" viewBox="0 0 132 159" fill="none" xmlns="http://www.w3.org/2000/svg">
<g clip-path="url(#clip0_4_3382)">
<path opacity="0.8" d="M93.6437 69.6099C88.8225 75.3166 82.4749 79.3212 75.1289 81.1376C69.8655 82.4249 64.4166 82.7395 59.3813 80.7086C71.4916 80.9231 82.7459 76.2891 90.7624 67.4931C96.0116 61.7436 100.02 53.4196 99.5491 45.2529C100.162 46.2826 100.348 47.3696 100.49 48.5853C101.432 56.1656 98.4793 63.8889 93.6437 69.6099Z" fill="#3C3C43" fill-opacity="0.6"/>
<path opacity="0.8" d="M79.5224 29.4201L73.5742 30.1209C67.241 30.8503 59.895 34.0255 55.0024 38.0874C54.7313 38.3162 54.5316 38.5594 54.4033 38.8168C53.4333 39.2888 52.4919 40.0182 51.8785 41.0623C51.5647 40.9765 51.3222 41.1481 51.0797 41.4341C47.8703 45.1528 45.3598 49.2862 43.7765 53.9631C42.6211 57.3813 41.7082 62.9736 42.9207 66.3203C43.0348 66.6207 43.5626 66.7208 43.5055 67.0641C43.2202 67.4502 43.3914 68.0652 43.2487 68.6945C43.0633 68.5944 42.8636 68.3513 42.7495 68.0509C41.6512 64.9902 41.0521 61.7865 41.3231 58.4683C41.5228 56.0512 41.9079 53.677 42.778 51.4029C47.2712 39.5891 57.8409 31.6656 70.1366 29.5917C73.3317 29.0625 76.4128 29.0196 79.5224 29.4201Z" fill="#3C3C43" fill-opacity="0.6"/>
<path opacity="0.16" d="M115.696 47.956C114.341 43.1218 112.159 38.7882 109.306 34.6834C105.911 29.7776 101.703 25.6442 96.5823 22.5978C89.2505 18.2213 81.0344 16.3334 72.4759 16.8626C60.0234 17.6349 48.3126 23.3416 40.0822 32.7525C25.1191 49.8296 26.6169 73.7862 42.3644 89.762L39.9681 93.309C37.9568 93.6522 36.2451 94.8537 34.8187 96.4412L32.9786 98.4722L14.7206 121.585L2.53905 137.475C0.114153 140.621 -0.813014 144.326 0.827358 148.116C2.18245 151.234 4.39338 153.823 7.26047 155.739C11.4684 158.557 17.2739 160.33 22.0666 157.727C24.0351 156.64 25.2475 154.995 26.3886 153.179L35.86 138.133C41.4943 129.179 47.3283 120.426 51.793 110.872L52.8343 108.655C53.6188 106.982 54.2464 105.366 54.1038 103.564L56.9566 98.8011C71.2064 103.607 86.8827 101.047 99.0928 92.3507C113.357 82.196 120.475 65.076 115.696 47.956ZM25.2475 148.144C24.4772 149.618 21.7385 154.194 20.0554 154.738C20.8114 149.103 8.38733 140.049 3.62312 142.567C3.76576 141.58 4.17942 140.521 4.87836 139.649L8.18763 135.415C9.5142 135.058 11.0119 135.43 12.3242 135.773C15.605 136.617 18.4007 138.261 20.8684 140.578C22.3804 141.994 23.6784 143.496 24.6912 145.37C25.0335 146.013 25.5898 147.472 25.2475 148.144ZM36.4733 101.976L27.1732 114.233L12.2386 133.942L9.59978 133.642L20.1267 119.954L26.0606 112.274L35.7744 99.8452C36.6445 99.7165 37.5432 99.7022 38.3705 99.7594C37.6287 100.56 37.0867 101.175 36.4733 101.976ZM49.8673 107.197C48.0701 102.677 44.0761 99.459 39.5401 98.3864C38.7699 98.2004 37.8855 98.3577 37.0582 98.2433C37.7856 97.5139 38.4989 96.4126 39.4545 95.9692C42.5499 94.5533 48.2555 97.2851 50.0956 100.374C51.7787 103.221 51.5648 104.379 49.8673 107.197ZM54.7171 96.1409L51.8073 100.761L51.1654 99.6307L54.2749 94.7964C54.0895 94.0098 53.5475 93.2089 52.8628 92.5939L50.8944 95.9263C50.5663 96.4841 49.9672 97.0276 49.4537 97.1849L47.5566 95.8405C46.1159 94.8394 44.5326 94.3388 42.7495 94.1814L46.2871 89.2328C49.8103 87.8598 56.814 92.837 54.7171 96.1409ZM104.042 81.3951C94.9847 91.5069 81.7904 97.0276 68.2538 96.4984C64.4595 96.3554 60.8792 95.6546 57.3417 94.4246C57.2134 94.3817 56.9851 94.2386 56.8853 94.1671C56.7712 94.0956 56.9138 93.5092 57.3275 93.6236C64.3026 95.5688 73.6741 95.9263 81.3767 93.4377C80.364 92.1219 79.0089 91.1493 78.5952 89.5475C78.4383 88.8895 79.9361 89.433 80.906 88.3461C71.9339 90.7346 64.2884 91.3353 55.4303 88.5034C49.9529 86.7728 45.0175 83.9695 40.9237 79.879C40.7526 80.0649 40.5386 80.494 40.6527 80.6084L41.1377 81.109C42.8351 83.7693 42.9635 81.9529 43.206 84.3271C43.3629 85.743 44.8036 86.3008 45.4455 87.6023C42.1933 85.128 38.8697 80.4654 36.887 76.6467L38.0281 77.3189C38.0995 76.947 38.0281 76.4321 37.8427 76.1461C33.7917 70.4251 31.8803 63.703 32.2512 56.6805C32.4509 52.6329 33.2354 48.9 34.8044 45.21C36.5732 41.0336 38.8555 37.3436 41.8652 33.9396C48.9259 26.0018 58.5399 20.8672 69.0668 19.3369C78.6238 17.9495 88.2663 19.7946 96.3255 25.158C101.346 28.5047 105.369 33.1816 107.623 38.7453C108.536 41.005 108.821 44.0658 110.347 44.7666C110.29 43.9656 110.233 43.4794 110.247 42.8214C112.059 46.9978 113.214 51.1741 113.4 55.7508C113.771 65.1761 110.333 74.3726 104.042 81.3951Z" fill="#3C3C43" fill-opacity="0.6"/>
<path d="M119.391 13.287C112.929 12.5719 111.06 6.70786 110.832 1.05841C110.818 0.414798 110.361 -0.0714846 109.734 2.74591e-05C108.208 0.171656 109.634 3.404 107.551 7.85206C106.096 10.9986 103.244 12.958 99.7632 13.0295C99.1641 13.0438 98.7219 13.8019 98.8217 14.2881C99.2069 16.2619 102.801 13.716 106.524 18.5217C109.919 22.8839 107.865 26.3737 109.762 26.5596C111.588 26.7312 109.762 22.6694 113.214 18.3357C114.712 16.4621 116.98 15.4895 119.362 15.3894C119.961 15.3608 120.46 14.8745 120.46 14.3597C120.46 13.8019 119.99 13.3585 119.391 13.287ZM112.957 15.6755C111.417 17.0628 110.461 18.6504 109.805 20.5526C108.835 17.3203 106.624 15.0176 103.629 14.045C106.81 13.101 108.864 10.5838 109.805 7.30856C110.675 10.498 112.644 13.101 115.81 14.2166C114.755 14.6314 113.885 15.0462 112.957 15.6755Z" fill="#0145FF"/>
<path d="M118.934 87.9599C116.58 92.0933 111.816 97.1707 106.795 97.6569C106.51 97.6855 105.968 97.471 105.868 97.2565C105.768 97.0419 105.939 96.4698 106.182 96.3125C111.973 92.9228 116.595 88.6464 119.148 82.2389C119.234 82.0244 119.661 81.7813 119.861 81.8099C121.231 81.9815 119.747 86.544 118.934 87.9599Z" fill="#0145FF"/>
<path d="M29.1416 86.687C28.6281 87.6309 26.3886 86.5153 25.4187 85.743C18.201 79.8933 19.3992 70.5252 21.1822 70.3536C21.4818 70.3393 21.8241 70.7827 21.8384 71.1688C22.4517 82.3819 29.8691 85.3425 29.1416 86.687Z" fill="#0145FF"/>
<path d="M127.421 22.6121C126.294 20.6527 126.893 17.9496 125.824 18.4215C125.11 18.7362 125.438 19.6658 124.839 21.611C124.226 23.6276 122.486 24.8576 120.332 24.7718C120.075 24.7575 119.576 25.1723 119.547 25.4297C119.362 26.8171 122.5 25.301 124.169 28.4046C125.51 30.8932 124.782 32.6381 125.767 32.6667C126.908 32.7097 125.824 29.9922 128.02 27.6609C129.632 25.9446 131.986 26.9029 132 25.773C132 24.4286 129.19 25.7301 127.421 22.6121ZM125.824 28.7336C125.31 27.289 124.54 26.0876 122.985 25.5584C124.369 24.9291 125.339 24.1568 125.852 22.7123C126.423 24.1425 127.193 25.0722 128.634 25.6729C127.122 26.1735 126.366 27.2461 125.824 28.7336Z" fill="#0145FF"/>
<path d="M114.812 99.0728C114.612 99.1014 114.156 98.9012 114.041 98.7439C113.927 98.558 114.17 98.0574 114.384 97.9C117.85 95.5115 120.589 92.4365 122.101 88.5034L122.714 88.1458C122.842 88.0743 123.185 88.4604 123.199 88.675C123.77 93.4234 119.704 98.1575 114.812 99.0728Z" fill="#0145FF"/>
<path d="M21.6958 87.774C20.683 89.5046 12.8663 84.2985 15.4481 77.0615C15.5194 76.8755 15.8475 76.5752 16.0187 76.5323C16.2326 76.475 16.6035 76.8755 16.632 77.1187C17.4736 84.4558 22.2236 86.8872 21.6958 87.774Z" fill="#0145FF"/>
<path d="M93.5726 7.1655C92.2603 7.06538 91.5328 5.9784 91.4615 4.92002C91.3759 3.77583 91.9465 2.57442 93.1732 2.25977C94.6424 1.87361 95.9689 3.0464 96.1259 4.40513C96.297 5.84968 95.27 7.29422 93.5726 7.1655Z" fill="#0145FF"/>
<path opacity="0.6" d="M113.4 55.7508C113.214 51.1741 112.059 46.9977 110.247 42.8214C110.233 43.4794 110.29 43.9656 110.347 44.7666C108.821 44.0658 108.535 41.005 107.623 38.7453C105.369 33.1816 101.346 28.5047 96.3254 25.158C88.2662 19.7945 78.6237 17.9495 69.0667 19.3369C58.5398 20.8672 48.9258 26.0018 41.8651 33.9396C38.8554 37.3436 36.5731 41.0336 34.8044 45.2099C33.2353 48.9 32.4508 52.6329 32.2511 56.6805C31.8802 63.703 33.7916 70.4251 37.8426 76.1461C38.0423 76.4321 38.0994 76.947 38.028 77.3189L36.8869 76.6467C38.8696 80.4654 42.1932 85.128 45.4454 87.6023C44.8035 86.3008 43.3628 85.743 43.2059 84.3271C42.9634 81.9529 42.835 83.7693 41.1376 81.109L40.6526 80.6084C40.5385 80.494 40.7525 80.0649 40.9237 79.879C45.0175 83.9695 49.9528 86.7728 55.4303 88.5034C64.2883 91.3353 71.9338 90.7346 80.9059 88.346C79.936 89.433 78.4382 88.8895 78.5952 89.5474C79.0088 91.1493 80.3639 92.1219 81.3767 93.4377C73.674 95.9263 64.3025 95.5688 57.3274 93.6236C56.9137 93.5092 56.7711 94.0956 56.8852 94.1671C56.985 94.2386 57.2133 94.3817 57.3416 94.4246C60.8791 95.6546 64.4594 96.3554 68.2537 96.4984C81.7903 97.0276 94.9846 91.5069 104.042 81.3951C110.333 74.3726 113.77 65.1761 113.4 55.7508ZM105.454 57.0523C100.647 80.1222 72.8039 93.7524 51.7073 82.9397C37.8426 75.8314 32.0942 59.9128 38.4274 45.4102C42.3358 36.4712 49.4679 29.5059 58.3687 25.587C71.0352 20.0377 86.4404 20.6098 96.9531 30.1924C104.385 36.9574 107.508 47.1837 105.454 57.0523Z" fill="#3C3C43" fill-opacity="0.6"/>
<path opacity="0.6" d="M24.6911 145.37C23.6784 143.496 22.3803 141.994 20.8683 140.578C18.4007 138.261 15.6049 136.617 12.3242 135.773C11.0119 135.43 9.51412 135.058 8.18756 135.415L4.87829 139.649C4.17935 140.521 3.76569 141.58 3.62305 142.567C8.38726 140.049 20.8113 149.103 20.0553 154.738C21.7385 154.194 24.4772 149.618 25.2474 148.144C25.5898 147.472 25.0335 146.013 24.6911 145.37ZM20.0838 150.447L17.1169 146.628C18.2295 145.985 20.0981 143.625 20.7828 142.266C21.9096 143.296 22.7797 144.612 23.4074 146.099L20.0838 150.447Z" fill="#3C3C43" fill-opacity="0.6"/>
<path opacity="0.6" d="M12.2387 133.942L9.59985 133.656L20.141 119.969L26.0606 112.288L35.7745 99.8595C36.6303 99.7308 37.5432 99.7308 38.3705 99.7737C37.6288 100.575 37.0868 101.19 36.4734 102.005L27.1732 114.262L12.2387 133.971V133.942Z" fill="#3C3C43" fill-opacity="0.6"/>
<path opacity="0.6" d="M52.8628 92.5938L50.88 95.9263C50.552 96.4841 49.9671 97.0133 49.4536 97.1849L47.5565 95.8548C46.1158 94.8393 44.5325 94.353 42.7495 94.1814L46.287 89.2328C49.8102 87.8597 56.8139 92.837 54.7314 96.1409L51.8072 100.761L51.1653 99.6163L54.2749 94.7964C54.0895 94.0098 53.5474 93.2088 52.877 92.5938H52.8628Z" fill="#3C3C43" fill-opacity="0.6"/>
<path opacity="0.6" d="M50.0955 100.374C48.2554 97.285 42.5498 94.5533 39.4545 95.9692C38.4988 96.4126 37.7856 97.5139 37.0581 98.2433C37.8854 98.3577 38.7698 98.2004 39.5401 98.3863C44.076 99.459 48.07 102.677 49.8673 107.197C51.5647 104.379 51.7787 103.221 50.0955 100.374ZM49.0685 104.293L46.8718 101.819C47.528 101.075 47.8275 100.546 48.2269 99.5734C49.0542 100.131 49.9671 101.161 50.0099 102.377C50.0242 102.92 49.4679 103.693 49.0685 104.293Z" fill="#3C3C43" fill-opacity="0.6"/>
<path opacity="0.16" d="M96.9531 30.1924C86.4404 20.6098 71.0352 20.0377 58.3687 25.587C49.4679 29.5059 42.3358 36.4712 38.4275 45.4102C32.0942 59.9128 37.8426 75.8314 51.7073 82.9397C72.804 93.7524 100.647 80.1222 105.454 57.0524C107.509 47.1837 104.385 36.9575 96.9531 30.1924ZM98.9358 67.7077C91.7752 78.6347 78.7521 85.3568 65.729 84.656C54.6172 84.041 43.6624 77.8481 39.9965 67.0211C38.6129 59.8127 39.697 52.8904 43.2202 46.583C49.5107 35.2984 61.4497 28.1043 74.2018 27.1174C83.8586 26.3594 94.3427 30.0208 100.148 37.9014C101.846 40.2041 102.801 42.7499 103.4 45.5389C105.055 53.2765 103.258 61.0856 98.9358 67.7077Z" fill="#3C3C43" fill-opacity="0.6"/>
<path opacity="0.16" d="M86.9397 31.8801C79.394 34.7978 72.6471 38.9312 66.3138 43.8512C62.6479 46.6974 59.3101 49.6008 56.0008 52.8475C52.1923 56.5947 48.5835 60.3133 45.4597 64.6327C44.8178 65.5194 44.233 66.3633 43.5055 67.0641C43.5626 66.7208 43.0348 66.6207 42.9207 66.3204C41.7082 62.9736 42.6211 57.3813 43.7765 53.9631C45.3598 49.2862 47.8703 45.1528 51.0797 41.4341C51.3222 41.1481 51.5647 40.9765 51.8785 41.0623C52.4919 40.0182 53.4333 39.2888 54.4033 38.8168C54.5316 38.5594 54.7313 38.3162 55.0024 38.0874C59.895 34.0255 67.241 30.8503 73.5742 30.1209L79.5224 29.4201C80.8917 29.6203 85.8271 30.4499 86.9397 31.8801Z" fill="#3C3C43" fill-opacity="0.6"/>
<path opacity="0.16" d="M20.0837 150.447L17.1025 146.643C18.2151 145.985 20.098 143.639 20.7684 142.28C21.8953 143.31 22.7654 144.64 23.393 146.114L20.0695 150.461L20.0837 150.447Z" fill="#3C3C43" fill-opacity="0.6"/>
<path opacity="0.16" d="M49.0685 104.308L46.8718 101.819C47.528 101.075 47.8275 100.546 48.2269 99.5734C49.04 100.131 49.9671 101.161 50.0099 102.377C50.0242 102.934 49.4679 103.693 49.0685 104.308Z" fill="#3C3C43" fill-opacity="0.6"/>
</g>
<defs>
<clipPath id="clip0_4_3382">
<rect width="132" height="159" fill="white"/>
</clipPath>
</defs>
</svg>
